PathFileType	4	(X/Y/Z)	C:/Users/opensim2020/Desktop/walking_exp_matlab/subject02_walking09_straight_03.trc	
DataRate	CameraRate	NumFrames	NumMarkers	Units	OrigDataRate	OrigDataStartFrame	OrigNumFrames	
100.00	100.00	4	42	mm	100.00	2210	262	
Frame#	Time	LFHD			RFHD			LBHD			RBHD			C7			T10			CLAV			STRN			RBAK			LSHO			LUPA			LELB			LFRM			LWRA			LWRB			LFIN			RSHO			RUPA			RELB			RFRM			RWRA			RWRB			RFIN			LASI			RASI			LPSI			RPSI			LTHI			LKNE			LTIB			LANK			LHEE			LTOE			RTHI			RKNE			RTIB			RANK			RHEE			RTOE			*39			*40			*41			
		X1	Y1	Z1	X2	Y2	Z2	X3	Y3	Z3	X4	Y4	Z4	X5	Y5	Z5	X6	Y6	Z6	X7	Y7	Z7	X8	Y8	Z8	X9	Y9	Z9	X10	Y10	Z10	X11	Y11	Z11	X12	Y12	Z12	X13	Y13	Z13	X14	Y14	Z14	X15	Y15	Z15	X16	Y16	Z16	X17	Y17	Z17	X18	Y18	Z18	X19	Y19	Z19	X20	Y20	Z20	X21	Y21	Z21	X22	Y22	Z22	X23	Y23	Z23	X24	Y24	Z24	X25	Y25	Z25	X26	Y26	Z26	X27	Y27	Z27	X28	Y28	Z28	X29	Y29	Z29	X30	Y30	Z30	X31	Y31	Z31	X32	Y32	Z32	X33	Y33	Z33	X34	Y34	Z34	X35	Y35	Z35	X36	Y36	Z36	X37	Y37	Z37	X38	Y38	Z38	X39	Y39	Z39	X40	Y40	Z40	X41	Y41	Z41	X42	Y42	Z42	

33	0.320	-969.46277	-721.47968	1757.05237	-828.24707	-745.34778	1727.38428	-1006.26300	-823.65063	1655.71155	-872.47345	-861.03894	1621.99207	-948.52136	-873.50049	1523.18433	-954.46930	-930.61053	1250.43787	-945.13116	-732.31531	1456.60938	-940.23016	-683.08197	1282.36182	-896.58362	-939.35345	1350.23535	-1119.51331	-777.46466	1509.01733	-1208.32715	-773.99072	1310.99329	-1222.57410	-767.03595	1168.54712	-1231.77917	-731.42627	1039.88538	-1189.01953	-654.60370	929.23468	-1228.66882	-694.95758	921.39270	-1223.15637	-664.11658	861.16077	-755.64130	-814.43884	1479.17346	-682.55945	-853.95636	1284.18250	-670.36810	-842.40942	1138.23853	-649.34387	-817.17303	1021.88013	-661.67413	-764.76874	896.54474	-638.82770	-816.43884	892.02588	-629.52173	-779.44788	830.07898	-1078.82678	-702.45709	980.96436	-824.06207	-704.94745	977.14862	-998.87714	-912.67230	1028.89844	-883.41840	-918.80383	1034.89258	-1159.81897	-763.01563	675.18512	-1159.24365	-782.15070	491.04361	-1163.39136	-928.89008	377.00180	-1156.50024	-1057.49573	194.42598	-1098.06995	-1089.95508	182.11424	-1209.38196	-976.88062	70.25921	-756.88617	-762.09192	673.76831	-803.17358	-743.71710	465.24686	-806.50531	-770.46393	277.33005	-851.28680	-770.12488	85.76810	-912.71948	-794.11285	33.52736	-816.15143	-619.13141	35.33516	-899.91785	-850.04614	1790.62329	-3360.33350	2845.24683	1034.00208			 
34	0.330	-967.31152	-715.42139	1757.95459	-825.96393	-739.07623	1728.73840	-1004.07568	-817.53278	1656.36072	-870.26575	-854.75806	1622.83362	-945.75397	-866.97412	1524.10828	-951.15967	-924.86328	1251.72900	-942.86865	-725.93274	1457.35828	-938.13605	-677.14996	1282.88782	-893.10822	-932.57147	1351.60071	-1117.07544	-771.79242	1509.65149	-1205.40527	-769.16553	1311.68860	-1219.95667	-762.42322	1169.22266	-1229.14331	-726.70758	1040.60095	-1186.00098	-649.98096	929.95538	-1225.78015	-690.22888	922.00879	-1219.86121	-659.35535	861.74915	-752.92810	-806.59546	1480.04285	-679.01862	-845.56104	1285.33032	-666.56323	-833.72974	1139.29700	-645.62909	-807.26788	1023.15527	-658.14648	-753.08472	898.54791	-635.20544	-805.22009	893.35400	-625.69855	-766.75861	832.09100	-1077.31970	-697.18597	982.19110	-821.80591	-699.78339	977.51959	-996.39117	-907.28198	1029.99475	-881.11969	-913.47888	1035.78186	-1157.42700	-752.75684	676.66620	-1156.62646	-768.52490	492.33130	-1160.18604	-914.20245	377.05109	-1153.36414	-1040.75562	193.00394	-1095.25244	-1073.80652	179.74014	-1206.66113	-956.65308	71.60464	-755.69397	-758.96228	673.68604	-802.47852	-741.84045	464.76331	-806.11890	-769.65710	277.36267	-851.43268	-769.80365	85.73223	-913.05890	-793.25842	32.92022	-816.20502	-619.12659	35.29844	-897.93842	-844.04327	1791.58252	-3360.38916	2845.17358	1033.89636			 
35	0.340	-965.54822	-709.50891	1758.86523	-824.19885	-733.31104	1729.49475	-1002.00751	-811.42590	1656.94714	-868.04901	-848.86279	1623.68860	-942.95465	-860.78931	1525.10437	-947.98901	-919.07831	1252.86328	-940.64093	-719.57959	1457.99573	-936.10455	-671.27545	1283.45837	-889.64905	-926.20868	1352.59839	-1114.68372	-766.18262	1510.34741	-1203.24646	-764.21497	1312.38635	-1217.74072	-757.83582	1169.74683	-1226.61353	-722.11755	1041.12219	-1183.28894	-645.46423	930.64166	-1223.18018	-685.58173	922.56873	-1216.96936	-654.67456	862.35168	-750.44208	-799.02454	1481.05493	-675.67310	-837.35120	1286.53650	-662.80096	-825.29633	1140.35388	-641.89667	-797.61078	1024.52356	-654.79211	-741.95996	900.55176	-631.64935	-794.04529	894.60419	-622.02216	-754.80768	834.23340	-1075.59509	-691.80005	983.48157	-819.57166	-694.80035	978.04034	-994.25000	-901.82690	1031.03516	-879.03937	-908.20569	1036.39087	-1155.08875	-742.79089	678.14111	-1153.96301	-755.34216	493.60437	-1157.11414	-899.56970	376.58563	-1150.32959	-1023.49762	190.68871	-1092.38782	-1056.84949	176.34489	-1203.34497	-936.25958	71.60467	-754.63422	-756.16620	673.58215	-801.77386	-740.65808	464.93655	-805.77637	-768.72321	277.32709	-851.46759	-769.75696	85.78384	-913.00507	-793.74493	33.15332	-816.23688	-619.14099	35.24876	-896.12573	-838.19592	1792.19287	-3357.37720	2845.88696	1034.09937			 
36	0.350	-963.87054	-703.54236	1759.63721	-822.45685	-727.11414	1730.55029	-999.93433	-805.37213	1657.44080	-865.97198	-842.57123	1624.41760	-940.21948	-854.46088	1526.00732	-944.85907	-913.42023	1254.00684	-938.49542	-713.35150	1458.61755	-934.09662	-665.44037	1283.91492	-886.20587	-919.95856	1354.08350	-1112.37866	-760.46295	1510.98450	-1200.77991	-759.36914	1312.89734	-1215.12793	-753.62305	1170.46948	-1224.19617	-717.77588	1041.76355	-1180.89478	-641.07098	931.26318	-1220.71545	-681.23621	923.10803	-1214.48230	-650.07520	862.96985	-747.90308	-791.62933	1482.13110	-672.30640	-829.64355	1287.85425	-658.96783	-816.28326	1141.63245	-638.48828	-786.99573	1026.10205	-651.56305	-730.78101	902.42737	-628.21283	-782.23895	896.11890	-618.52515	-742.35669	836.36194	-1073.54175	-686.29681	984.87598	-817.13507	-690.00836	978.50073	-992.39319	-896.40454	1032.04736	-877.23175	-903.04291	1036.84546	-1152.75305	-733.05945	679.61835	-1151.13269	-742.39069	494.80923	-1154.22693	-884.99158	375.65204	-1147.26794	-1005.63556	187.49251	-1089.62354	-1039.22278	172.49989	-1200.21423	-914.38733	72.04795	-753.66315	-753.63922	673.46008	-801.16693	-738.73041	464.49658	-805.38910	-767.80298	277.36432	-851.52966	-769.63788	85.85345	-913.05115	-793.74701	33.22518	-816.25098	-619.08069	35.17736	-894.23901	-832.11530	1792.97583	-3360.26245	2845.18408	1034.18481			 
